<svg xmlns="http://www.w3.org/2000/svg" viewBox="0 0 512 512">
  <!-- Background -->
  <rect width="512" height="512" rx="100" fill="#1a4a2e"/>
  <!-- Outer gold ring -->
  <circle cx="256" cy="230" r="148" fill="none" stroke="#c9941a" stroke-width="6"/>
  <!-- Main dome -->
  <path d="M166 310 Q166 210 256 195 Q346 210 346 310 Z" fill="#f5f0e0"/>
  <!-- Left minaret -->
  <rect x="136" y="248" width="36" height="62" rx="4" fill="#f5f0e0"/>
  <path d="M136 248 Q154 222 172 248 Z" fill="#f5f0e0"/>
  <rect x="147" y="208" width="14" height="42" rx="7" fill="#f5f0e0"/>
  <circle cx="154" cy="204" r="8" fill="#c9941a"/>
  <!-- Right minaret -->
  <rect x="340" y="248" width="36" height="62" rx="4" fill="#f5f0e0"/>
  <path d="M340 248 Q358 222 376 248 Z" fill="#f5f0e0"/>
  <rect x="351" y="208" width="14" height="42" rx="7" fill="#f5f0e0"/>
  <circle cx="358" cy="204" r="8" fill="#c9941a"/>
  <!-- Door arch -->
  <path d="M222 310 Q222 272 256 266 Q290 272 290 310 Z" fill="#1a4a2e"/>
  <!-- Crescent -->
  <path d="M244 180 Q256 162 270 175 Q258 168 246 183 Z" fill="#c9941a"/>
  <circle cx="275" cy="171" r="5" fill="#c9941a"/>
  <!-- Base platform -->
  <rect x="120" y="310" width="272" height="14" rx="7" fill="#f5f0e0"/>
  <!-- Stars -->
  <circle cx="200" cy="158" r="5" fill="#c9941a"/>
  <circle cx="312" cy="158" r="5" fill="#c9941a"/>
  <circle cx="256" cy="140" r="5" fill="#c9941a"/>
  <!-- Bottom text area -->
  <rect x="80" y="370" width="352" height="90" rx="12" fill="rgba(0,0,0,0.2)"/>
  <text x="256" y="408" font-family="serif" font-size="28" fill="#c9941a" text-anchor="middle">Qur'an Tracker</text>
  <text x="256" y="440" font-family="serif" font-size="18" fill="#f5f0e0" text-anchor="middle">Amir &amp; Farah</text>
</svg>
